<svg width="265" height="229" viewBox="0 0 265 229" fill="none" xmlns="http://www.w3.org/2000/svg">
<g id="Frame" clip-path="url(#clip0_0_70)">
<g id="Group">
<path id="Vector" d="M174.604 66.1746C176.205 64.3725 178.236 63.1433 180.41 62.1391C185.856 59.6219 191.537 57.7721 197.366 56.3635C204.045 54.7531 210.788 53.5258 217.64 52.932C218.703 52.839 219.78 52.9447 220.851 52.9534C220.873 53.1224 220.903 53.2934 220.925 53.4625C220.357 53.5964 219.795 53.8078 219.216 53.8595C209.595 54.7291 200.152 56.5175 190.896 59.3023C186.766 60.5457 182.771 62.1556 178.974 64.2039C178.016 64.7189 177.201 65.4785 176.285 66.0762C175.856 66.355 175.36 66.5283 174.897 66.746C174.795 66.5598 174.699 66.3709 174.604 66.1746Z" fill="black" fill-opacity="0.75"/>
<path id="Vector_2" d="M213.034 59.2416C217.457 56.5814 222.599 55.6448 227.525 53.6919C224.981 51.2527 221.765 50.061 219.528 47.3381C221.116 47.5567 226.929 51.2696 230.272 54.1257C227.249 55.1053 224.382 55.9953 221.539 56.9594C218.765 57.9022 216.023 58.921 213.266 59.9042C213.187 59.6802 213.111 59.4609 213.034 59.2416Z" fill="black" fill-opacity="0.75"/>
<g id="Group_2">
<path id="Vector_3" d="M153.621 150.987C154.864 151.272 154.895 152.183 154.775 153.193C154.711 153.744 154.504 154.397 154.702 154.847C155.66 156.985 154.79 158.51 153.224 159.859C152.948 160.1 152.66 160.317 152.411 160.517C152.365 160.719 152.289 160.87 152.318 160.997C153.165 164.767 150.521 167.673 147.283 168.539C145.647 168.976 144.025 169.273 142.323 168.976C139.758 168.531 137.716 167.514 137.235 164.606C135.212 164.243 132.984 164.457 131.781 162.341C131.12 161.174 130.633 159.962 131.254 158.637C128.669 156.223 128.611 155.754 130.399 151.974C129.236 149.296 128.108 146.604 126.893 143.956C126.518 143.144 126.226 142.29 124.989 142.114C117.972 141.129 113.165 137.029 110.009 130.911C106.781 124.657 105.778 117.998 107.56 111.155C109.174 104.954 113.113 100.359 118.401 96.8174C124.367 92.8209 130.867 91.6836 137.842 92.9442C142.817 93.8478 147.451 95.6383 151.162 99.1658C157.509 105.193 160.144 112.615 159.086 121.331C158.407 126.891 156.052 131.644 152.26 135.734C151.723 136.314 151.317 137.012 150.84 137.664C151.633 139.646 152.461 141.514 153.131 143.435C153.953 145.783 153.712 146.343 151.417 147.322C150.15 147.866 148.8 148.232 147.46 148.585C142.736 149.832 138.021 151.105 133.263 152.209C131.842 152.54 131.174 153.522 130.537 154.504C129.738 155.75 130.865 157.3 132.501 157.309C133.219 157.315 133.971 157.182 134.658 156.961C140.144 155.217 145.751 153.793 150.884 151.093C151.852 150.584 152.826 150.034 153.663 149.344C154.271 148.843 154.655 148.075 155.101 147.479C155.689 148.3 155.696 148.91 154.905 149.8C154.529 150.224 154.094 150.601 153.689 150.997C147.264 154.187 140.589 156.717 133.583 158.303C132.575 158.534 132.252 158.996 132.529 160.172C133.331 160.148 134.135 160.248 134.874 160.072C139.131 159.07 143.414 158.122 147.604 156.894C149.386 156.374 151.071 155.338 152.631 154.293C153.704 153.586 154.606 152.475 153.621 150.987ZM144.471 148.165C146.583 147.586 148.714 147.095 150.782 146.397C152.462 145.829 152.631 145.373 152.07 143.803C151.607 142.502 151.134 141.182 150.472 139.971C149.415 138.041 149.885 136.478 151.327 135.031C151.584 134.769 151.841 134.508 152.075 134.229C158.176 126.968 159.796 118.737 156.836 109.808C154.139 101.681 148.225 96.7284 140.023 94.5825C130.321 92.0425 121.757 94.2333 114.644 101.382C111.287 104.757 108.848 108.693 108.209 113.572C107.239 120.931 108.702 127.657 113.125 133.69C116.126 137.779 120.029 140.367 125.107 140.961C126.379 141.111 127.093 141.696 127.57 142.782C128.362 144.589 129.159 146.393 129.992 148.183C130.509 149.295 131.092 150.37 131.669 151.511C133.803 150.894 135.745 150.337 137.642 149.787C137.666 149.535 137.732 149.378 137.688 149.259C136.325 145.561 135.064 141.823 133.549 138.188C132.144 134.822 129.893 132.063 126.72 130.119C125.603 129.434 124.509 128.68 123.506 127.835C120.461 125.265 120.761 122.633 124.256 120.747C124.447 120.643 124.651 120.55 124.856 120.47C126.795 119.689 128.923 119.551 130.853 118.657C131.556 118.332 132.587 118.597 133.438 118.745C133.989 118.841 134.498 119.212 134.871 119.392C137.358 116.181 138.432 116.075 142.201 118.409C142.61 118.173 143.042 117.911 143.485 117.667C145.528 116.557 146.865 116.97 147.996 119.027C149.144 121.124 148.439 123.043 147.293 124.796C146.261 126.376 145.106 127.928 143.779 129.258C141.553 131.497 141.265 134.084 141.909 136.949C142.754 140.639 143.598 144.329 144.471 148.165ZM127.595 120.814C126.653 121.094 125.87 121.227 125.178 121.55C122.009 123.035 121.757 124.881 124.455 127.13C125.572 128.066 126.81 128.863 128.038 129.653C130.557 131.279 132.529 133.414 133.824 136.091C134.931 138.388 135.846 140.776 136.762 143.157C137.536 145.182 138.189 147.257 138.947 149.473C140.548 149.094 141.932 148.765 143.41 148.414C143.282 147.692 143.204 147.122 143.071 146.565C142.333 143.516 141.53 140.486 140.838 137.429C140.096 134.145 140.213 131.023 142.917 128.514C143.447 128.02 143.934 127.463 144.351 126.871C145.271 125.562 146.184 124.244 147.01 122.871C147.612 121.871 147.516 120.76 147.099 119.689C146.641 118.505 145.767 117.981 144.76 118.267C143.393 118.649 142.862 119.445 143.069 120.793C143.115 121.08 143.218 121.366 143.233 121.652C143.288 122.705 142.789 123.338 141.949 123.296C141.085 123.256 140.608 122.615 140.743 121.609C140.792 121.248 140.884 120.887 141.008 120.547C141.339 119.621 140.938 119.025 140.206 118.507C138.582 117.356 137.214 117.844 136.408 119.903C136.861 120.469 137.339 121.015 137.759 121.601C138.253 122.294 138.596 123.137 137.895 123.793C137.418 124.237 136.496 124.694 136.02 124.511C135.415 124.277 134.87 123.463 134.642 122.786C134.407 122.075 134.579 121.222 134.577 120.295C133.184 119.958 131.899 119.176 130.515 120.125C131.091 121.122 131.694 121.96 132.078 122.886C132.55 124.019 132.117 125.04 131.274 125.872C130.5 126.639 129.07 126.9 128.226 126.471C127.131 125.911 126.987 124.89 127.066 123.841C127.133 122.981 127.357 122.13 127.595 120.814ZM153.903 155.083C147.461 159.21 140.017 159.995 132.748 161.702C133.853 163.366 135.479 163.424 137.04 163.182C140.489 162.639 143.928 161.977 147.346 161.239C148.684 160.95 149.988 160.404 151.23 159.818C153.464 158.755 154.229 157.353 153.903 155.083ZM138.426 164.42C138.586 166.197 139.68 167.07 141.272 167.569C143.78 168.36 146.192 167.952 148.497 166.948C150.636 166.014 151.779 163.453 151.322 161.434C147.036 162.428 142.741 163.421 138.426 164.42ZM130.37 122.047C130.242 121.976 129.725 121.484 129.202 121.479C128.932 121.478 128.588 122.317 128.397 122.822C128.245 123.211 128.153 123.703 128.259 124.094C128.388 124.59 128.645 125.295 129.013 125.421C129.435 125.566 130.172 125.31 130.536 124.974C131.329 124.24 131.286 123.318 130.37 122.047ZM136.079 123.668C137.331 122.381 137.315 122.321 135.635 121.453C135.784 122.189 135.896 122.764 136.079 123.668Z" fill="black" fill-opacity="0.75"/>
<path id="Vector_4" d="M91.8383 158.061C89.1811 161.27 86.7143 164.569 85.1684 168.454C83.6439 172.288 82.8323 176.282 82.5386 180.391C82.2424 184.538 82.2399 188.673 82.9082 192.873C85.2049 188.605 86.1572 183.671 89.5009 179.978C87.202 186.034 84.4414 191.9 82.6884 198.456C81.8146 195.292 79.024 193.967 77.2509 191.754C76.6303 190.984 75.9728 190.247 75.5125 189.308C77.9128 190.293 79.2368 192.565 81.5725 194.177C81.5572 193.314 81.5814 192.704 81.5235 192.104C80.942 185.741 81.027 179.413 82.501 173.155C83.7482 167.863 86.0873 163.125 89.7473 159.067C90.4668 158.282 90.454 158.271 91.8383 158.061Z" fill="black" fill-opacity="0.75"/>
<path id="Vector_5" d="M223.028 137.911C219.209 138.522 215.724 139.08 212.026 139.672C212.863 138.078 214.379 138.282 215.588 137.954C216.905 137.595 218.258 137.385 220.08 137.01C216.299 135.85 212.995 134.734 209.638 133.83C205.693 132.765 201.725 131.738 197.711 130.957C194.929 130.418 192.066 130.12 189.231 130.088C187.488 130.066 185.738 130.751 183.88 131.14C183.605 130.489 184.235 130.201 184.672 129.948C186.673 128.818 188.907 128.701 191.075 128.936C194.553 129.311 198.074 129.694 201.448 130.574C207.805 132.23 214.073 134.243 220.38 136.096C220.492 136.126 220.642 136.027 221.037 135.918C220.087 133.349 218.294 131.223 217.382 128.676C220.398 131.031 221.761 134.371 223.028 137.911Z" fill="black" fill-opacity="0.75"/>
<path id="Vector_6" d="M153.005 34.3367C155.398 30.8225 157.787 27.323 160.272 23.6743C161.585 25.3623 161.883 27.5615 162.797 29.4608C163.726 31.3837 164.5 33.3766 165.142 35.4335C163.432 33.7109 162.457 31.5767 161.393 28.8978C157.602 39.887 154.475 50.5176 154.513 61.861C153.242 61.9179 153.383 61.0649 153.413 60.5204C153.56 57.8954 153.692 55.2664 154.008 52.6629C154.94 44.9993 157.27 37.6826 159.685 30.3924C159.913 29.7021 160.281 29.057 160.589 28.396C160.975 27.5649 160.888 26.8497 160.066 26.2396C157.844 29.0086 156.393 32.3616 153.532 34.5972C153.476 34.6419 153.284 34.483 153.005 34.3367Z" fill="black" fill-opacity="0.75"/>
<path id="Vector_7" d="M97.2826 96.6783C96.2091 97.0786 95.6862 96.3142 95.0317 95.9519C90.6245 93.5224 86.2808 90.9747 81.7908 88.7058C79.0802 87.3353 76.1451 86.4017 72.9788 85.1438C73.3117 87.1218 74.7745 88.3409 74.4706 90.4545C73.0467 89.1942 72.8233 87.5795 71.9106 86.4442C70.9824 85.2928 70.132 84.0589 69.0644 83.057C67.971 82.0324 66.6576 81.2351 65.3415 80.27C71.6831 80.5854 77.8832 80.8947 84.1298 81.2085C82.6906 82.1272 82.5156 82.1717 77.0657 82.0754C74.6636 82.0322 72.2682 81.8596 69.7592 81.7401C70.3908 83.0188 71.2905 83.6535 72.5803 84.019C80.5855 86.3031 87.9 90.0963 94.9107 94.5038C95.781 95.0552 96.8407 95.4783 97.2826 96.6783Z" fill="black" fill-opacity="0.75"/>
<path id="Vector_8" d="M32.6814 159.329C34.2631 158.19 35.783 156.955 37.4318 155.921C47.3686 149.72 57.9613 144.796 68.6253 140.007C68.7652 139.945 69.0166 140.12 69.2825 140.211C69.1332 141.332 68.1428 141.496 67.4234 141.836C64.2592 143.33 61.0591 144.751 57.8705 146.204C50.4747 149.57 43.4892 153.691 36.5098 157.834C35.3446 158.531 34.4315 159.698 32.6814 159.329Z" fill="black" fill-opacity="0.75"/>
<path id="Vector_9" d="M27.9775 162.904C28.7314 159.245 34.6185 151.907 40.4269 147.192C40.2022 148.476 39.7117 149.223 38.3733 150.686C36.1077 153.161 33.8475 155.645 31.6589 158.188C30.8626 159.112 30.2793 160.22 29.3952 161.546C33.4507 161.563 36.9383 160.39 40.5639 159.489C40.5363 159.962 40.5871 160.322 40.5064 160.356C36.5704 162.045 32.4188 162.698 27.9775 162.904Z" fill="black" fill-opacity="0.75"/>
<path id="Vector_10" d="M165.882 104.291C170.554 99.9756 175.119 95.5084 181.538 93.7967C181.641 93.9196 181.75 94.0444 181.853 94.1672C181.617 94.454 181.434 94.8981 181.129 94.9992C175.805 96.8374 171.778 100.618 167.489 104.01C167.105 104.313 166.638 104.513 166.21 104.761C166.105 104.601 165.996 104.445 165.882 104.291Z" fill="black" fill-opacity="0.75"/>
<path id="Vector_11" d="M126.623 83.7783C126.063 81.6362 125.386 79.5181 124.981 77.3497C124.498 74.7747 124.229 72.1576 123.929 69.5521C123.852 68.8875 123.776 68.0597 125.047 67.8277C124.731 73.3102 126.8 78.3819 127.171 83.6748C126.988 83.7052 126.808 83.7404 126.623 83.7783Z" fill="black" fill-opacity="0.75"/>
<path id="Vector_12" d="M81.4428 109.06C81.9544 108.947 82.4727 108.704 82.9715 108.742C86.8614 109.08 90.7109 109.599 94.2832 111.256C94.2556 111.404 94.2279 111.551 94.1956 111.702C89.9907 110.981 85.7832 110.255 81.5783 109.534C81.5325 109.378 81.4839 109.218 81.4428 109.06Z" fill="black" fill-opacity="0.75"/>
<path id="Vector_13" d="M180.223 126.056C179.839 126.227 179.529 126.482 179.233 126.471C177.376 126.414 167.884 123.458 166.68 122.61C168.225 122.408 178.664 125.018 180.223 126.056Z" fill="black" fill-opacity="0.75"/>
<path id="Vector_14" d="M151.287 84.7365C152.979 80.7362 156.461 77.1638 159.472 76.4793C159.138 78.0083 157.474 78.0157 156.789 79.057C156.042 80.197 155.017 81.159 154.113 82.2013C153.278 83.1665 152.445 84.1243 151.61 85.0894C151.498 84.972 151.394 84.8566 151.287 84.7365Z" fill="black" fill-opacity="0.75"/>
<path id="Vector_15" d="M100.897 132.533C98.6812 135.832 96.0348 138.289 93.5574 140.886C93.4568 140.994 93.0646 140.825 92.7673 140.777C93.7894 138.669 98.7264 133.586 100.897 132.533Z" fill="black" fill-opacity="0.75"/>
<path id="Vector_16" d="M106.468 91.3376C103.481 89.3363 100.497 87.3397 97.5231 85.3182C97.419 85.2466 97.4897 84.9235 97.4596 84.3826C101.346 85.7142 103.994 88.388 106.756 90.9017C106.662 91.0436 106.566 91.193 106.468 91.3376Z" fill="black" fill-opacity="0.75"/>
</g>
</g>
</g>
<defs>
<clipPath id="clip0_0_70">
<rect width="229.581" height="130.31" fill="white" transform="translate(0.762878 115.767) rotate(-30)"/>
</clipPath>
</defs>
</svg>
